<svg width="32" height="32" viewBox="0 0 32 32" fill="none" xmlns="http://www.w3.org/2000/svg">
<circle cx="16" cy="16" r="14.5" fill="#F8E85D" stroke="#F1F5F8" stroke-width="3"/>
<path d="M19.2279 14.7602L19.3693 15.0163C19.83 16.0884 19.8378 17.9924 18.9451 18.9525C18.6927 19.0725 18.2793 18.9444 17.671 18.5124C15.3147 20.9446 12.8341 21.4007 11.3036 19.8246C9.77311 18.2485 10.1802 15.7364 12.5769 13.2642C12.1714 12.8002 11.9057 12.344 12.1527 11.952C13.0804 11.04 14.9309 11.0399 15.9735 11.52C16.6789 11.808 17.3711 12.3361 17.9888 12.9921C18.754 12.2561 19.6412 11.7921 20.8338 12.0321" stroke="#141736" stroke-width="2" stroke-miterlimit="79.8403" stroke-linecap="round" stroke-linejoin="round"/>
<path d="M13.8458 14.5762L16.4026 17.2084" stroke="#141736" stroke-width="2" stroke-miterlimit="79.8403" stroke-linecap="round" stroke-linejoin="round"/>
</svg>
