<svg width="71" height="33" viewBox="0 0 71 33" fill="none" xmlns="http://www.w3.org/2000/svg">
<path d="M22.5 15.75H18.75V12C18.75 11.586 18.414 11.25 18 11.25C17.586 11.25 17.25 11.586 17.25 12V15.75H13.5C13.086 15.75 12.75 16.086 12.75 16.5C12.75 16.914 13.086 17.25 13.5 17.25H17.25V21C17.25 21.414 17.586 21.75 18 21.75C18.414 21.75 18.75 21.414 18.75 21V17.25H22.5C22.914 17.25 23.25 16.914 23.25 16.5C23.25 16.086 22.914 15.75 22.5 15.75Z" fill="#1F3EFA"/>
<path d="M39.364 21L38.678 19.026H34.506L33.82 21H32.07L35.626 11.2H37.558L41.1 21H39.364ZM35.038 17.514H38.146L36.592 13.09L35.038 17.514ZM47.4221 11.2H48.9341V21H47.4221V19.992C46.8528 20.7853 46.0361 21.182 44.9721 21.182C44.0108 21.182 43.1894 20.8273 42.5081 20.118C41.8268 19.3993 41.4861 18.5267 41.4861 17.5C41.4861 16.464 41.8268 15.5913 42.5081 14.882C43.1894 14.1727 44.0108 13.818 44.9721 13.818C46.0361 13.818 46.8528 14.21 47.4221 14.994V11.2ZM43.6281 19.11C44.0481 19.53 44.5754 19.74 45.2101 19.74C45.8448 19.74 46.3721 19.53 46.7921 19.11C47.2121 18.6807 47.4221 18.144 47.4221 17.5C47.4221 16.856 47.2121 16.324 46.7921 15.904C46.3721 15.4747 45.8448 15.26 45.2101 15.26C44.5754 15.26 44.0481 15.4747 43.6281 15.904C43.2081 16.324 42.9981 16.856 42.9981 17.5C42.9981 18.144 43.2081 18.6807 43.6281 19.11ZM56.2405 11.2H57.7525V21H56.2405V19.992C55.6711 20.7853 54.8545 21.182 53.7905 21.182C52.8291 21.182 52.0078 20.8273 51.3265 20.118C50.6451 19.3993 50.3045 18.5267 50.3045 17.5C50.3045 16.464 50.6451 15.5913 51.3265 14.882C52.0078 14.1727 52.8291 13.818 53.7905 13.818C54.8545 13.818 55.6711 14.21 56.2405 14.994V11.2ZM52.4465 19.11C52.8665 19.53 53.3938 19.74 54.0285 19.74C54.6631 19.74 55.1905 19.53 55.6105 19.11C56.0305 18.6807 56.2405 18.144 56.2405 17.5C56.2405 16.856 56.0305 16.324 55.6105 15.904C55.1905 15.4747 54.6631 15.26 54.0285 15.26C53.3938 15.26 52.8665 15.4747 52.4465 15.904C52.0265 16.324 51.8165 16.856 51.8165 17.5C51.8165 18.144 52.0265 18.6807 52.4465 19.11Z" fill="#1F3EFA"/>
<rect x="0.5" y="0.5" width="70" height="32" rx="10.5" stroke="#1F3EFA" stroke-dasharray="6 6"/>
</svg>
