<svg width="14" height="16" viewBox="0 0 14 16" fill="none" xmlns="http://www.w3.org/2000/svg">
<path d="M9.25 13.25C9.25 13.8468 9.01295 14.4191 8.59099 14.841C8.16903 15.263 7.59674 15.5 7 15.5C6.40326 15.5 5.83097 15.263 5.40901 14.841C4.98705 14.4191 4.75 13.8468 4.75 13.25H1C0.801088 13.25 0.610322 13.171 0.46967 13.0304C0.329018 12.8897 0.25 12.6989 0.25 12.5C0.25 12.3011 0.329018 12.1103 0.46967 11.9697C0.610322 11.829 0.801088 11.75 1 11.75H1.75V7.25002C1.74915 6.25294 2.03224 5.27624 2.56617 4.43417C3.1001 3.5921 3.86279 2.91949 4.765 2.49502C4.82861 1.94688 5.09144 1.44122 5.50352 1.0742C5.9156 0.707183 6.44818 0.504395 7 0.504395C7.55182 0.504395 8.0844 0.707183 8.49648 1.0742C8.90856 1.44122 9.17139 1.94688 9.235 2.49502C10.1372 2.91949 10.8999 3.5921 11.4338 4.43417C11.9678 5.27624 12.2509 6.25294 12.25 7.25002V11.75H13C13.1989 11.75 13.3897 11.829 13.5303 11.9697C13.671 12.1103 13.75 12.3011 13.75 12.5C13.75 12.6989 13.671 12.8897 13.5303 13.0304C13.3897 13.171 13.1989 13.25 13 13.25H9.25ZM6.25 13.25C6.25 13.4489 6.32902 13.6397 6.46967 13.7804C6.61032 13.921 6.80109 14 7 14C7.19891 14 7.38968 13.921 7.53033 13.7804C7.67098 13.6397 7.75 13.4489 7.75 13.25H6.25ZM6.25 3.57502C5.40298 3.74792 4.6417 4.20816 4.09502 4.87784C3.54834 5.54753 3.24982 6.38553 3.25 7.25002V11.75H10.75V7.25002C10.7502 6.38553 10.4517 5.54753 9.90498 4.87784C9.3583 4.20816 8.59702 3.74792 7.75 3.57502V2.75002C7.75 2.55111 7.67098 2.36034 7.53033 2.21969C7.38968 2.07904 7.19891 2.00002 7 2.00002C6.80109 2.00002 6.61032 2.07904 6.46967 2.21969C6.32902 2.36034 6.25 2.55111 6.25 2.75002V3.57502Z" fill="#1F3EFA"/>
</svg>
