<svg width="14" height="14" viewBox="0 0 14 14" fill="none" xmlns="http://www.w3.org/2000/svg">
<g clip-path="url(#clip0)">
<path d="M12.2506 2.18677H3.50372C3.02064 2.18677 2.62903 2.57838 2.62903 3.06146C2.62903 3.54454 3.02064 3.93615 3.50372 3.93615H12.2506C12.7337 3.93615 13.1253 3.54454 13.1253 3.06146C13.1253 2.57838 12.7337 2.18677 12.2506 2.18677Z" fill="#A5B4CB"/>
<path d="M1.75416 3.06144C1.75318 2.82984 1.66038 2.60808 1.49613 2.44478C1.15497 2.10565 0.603969 2.10565 0.262812 2.44478C0.0985337 2.60808 0.00573427 2.82984 0.00477757 3.06144C-0.00175528 3.1181 -0.00175528 3.17534 0.00477757 3.232C0.0146725 3.289 0.0307997 3.34473 0.0528857 3.3982C0.0763657 3.44999 0.104164 3.49974 0.135981 3.54689C0.167388 3.59593 0.204043 3.64139 0.245318 3.68247C0.285116 3.72211 0.329097 3.75731 0.376522 3.78744C0.42258 3.82097 0.472519 3.84888 0.52522 3.87053C0.583195 3.9006 0.644998 3.92268 0.708905 3.93613C0.765569 3.94247 0.822806 3.94247 0.87947 3.93613C1.11044 3.93632 1.33212 3.84514 1.49613 3.68247C1.5374 3.64139 1.57406 3.59593 1.60546 3.54689C1.63728 3.49974 1.66508 3.44999 1.68856 3.3982C1.71647 3.34539 1.73847 3.28965 1.75416 3.232C1.7607 3.17534 1.7607 3.1181 1.75416 3.06144Z" fill="#A5B4CB"/>
<path d="M1.75427 6.99747C1.76077 6.94081 1.76077 6.88357 1.75427 6.82691C1.73915 6.77046 1.71712 6.71612 1.68867 6.66509C1.66614 6.61143 1.63829 6.56016 1.60557 6.51202C1.57526 6.46353 1.53846 6.41938 1.49623 6.38082C1.15508 6.04168 0.604075 6.04168 0.262917 6.38082C0.0986389 6.54411 0.00583951 6.76587 0.00488281 6.99747C0.00657753 7.11274 0.0288002 7.22675 0.0704847 7.33423C0.0924067 7.38597 0.118757 7.43572 0.149207 7.48293C0.182473 7.53046 0.220577 7.57444 0.262917 7.61413C0.301568 7.65628 0.345685 7.69307 0.394121 7.72347C0.440179 7.75704 0.490091 7.78494 0.542819 7.80657C0.596148 7.82901 0.651937 7.84516 0.70901 7.85467C0.764963 7.86722 0.822228 7.8731 0.879575 7.87217C0.936239 7.8787 0.993477 7.8787 1.05014 7.87217C1.10579 7.86263 1.16013 7.84647 1.21196 7.82406C1.26611 7.80257 1.3175 7.77467 1.36503 7.74096C1.41347 7.71057 1.45758 7.67378 1.49623 7.63163C1.53838 7.59298 1.57517 7.54886 1.60557 7.50042C1.63919 7.45439 1.6671 7.40448 1.68867 7.35172C1.71854 7.29367 1.7406 7.23189 1.75427 7.16804C1.76099 7.11138 1.76099 7.05414 1.75427 6.99747Z" fill="#A5B4CB"/>
<path d="M1.75414 10.9338C1.76062 10.8771 1.76062 10.8199 1.75414 10.7632C1.73902 10.7053 1.71699 10.6496 1.68854 10.597C1.66506 10.5452 1.63726 10.4954 1.60544 10.4483C1.57505 10.3999 1.53825 10.3557 1.4961 10.3171C1.15495 9.97796 0.603945 9.97796 0.262788 10.3171C0.220638 10.3557 0.183847 10.3999 0.153451 10.4483C0.121634 10.4954 0.0938353 10.5452 0.0703553 10.597C0.0476679 10.6502 0.0315134 10.7061 0.0222472 10.7632C0.00991948 10.8192 0.00406997 10.8764 0.00475333 10.9338C0.00573735 11.1654 0.0985368 11.3871 0.262788 11.5504C0.301438 11.5926 0.345555 11.6294 0.393991 11.6597C0.440049 11.6933 0.489962 11.7212 0.542689 11.7428C0.596018 11.7653 0.651807 11.7814 0.708881 11.791C0.764834 11.8035 0.822099 11.8094 0.879446 11.8084C0.936109 11.815 0.993347 11.815 1.05001 11.8084C1.10566 11.7989 1.16 11.7828 1.21183 11.7603C1.26598 11.7389 1.31737 11.7109 1.3649 11.6772C1.41334 11.6468 1.45745 11.6101 1.4961 11.5679C1.53825 11.5293 1.57505 11.4851 1.60544 11.4367C1.63909 11.3907 1.667 11.3408 1.68854 11.288C1.71839 11.2299 1.74044 11.1682 1.75414 11.1043C1.76086 11.0477 1.76086 10.9904 1.75414 10.9338Z" fill="#A5B4CB"/>
<path d="M13.1253 6.1228H3.50372C3.02064 6.1228 2.62903 6.51442 2.62903 6.99749C2.62903 7.48057 3.02064 7.87219 3.50372 7.87219H13.1253C13.6084 7.87219 14 7.48057 14 6.99749C14 6.51442 13.6084 6.1228 13.1253 6.1228Z" fill="#A5B4CB"/>
<path d="M9.18922 10.0591H3.50372C3.02064 10.0591 2.62903 10.4507 2.62903 10.9338C2.62903 11.4169 3.02064 11.8085 3.50372 11.8085H9.18922C9.6723 11.8085 10.0639 11.4169 10.0639 10.9338C10.0639 10.4507 9.6723 10.0591 9.18922 10.0591Z" fill="#A5B4CB"/>
</g>
<defs>
<clipPath id="clip0">
<rect width="14" height="14" fill="white"/>
</clipPath>
</defs>
</svg>
