<svg width="18" height="18" viewBox="0 0 18 18" fill="none" xmlns="http://www.w3.org/2000/svg">
<path d="M9.75 4.17709V3.375H10.5C10.9142 3.375 11.25 3.03918 11.25 2.625C11.25 2.21082 10.9142 1.875 10.5 1.875H7.5C7.08582 1.875 6.75 2.21082 6.75 2.625C6.75 3.03918 7.08582 3.375 7.5 3.375H8.25V4.17709C5.29504 4.54807 3 7.07117 3 10.125C3 13.4333 5.69165 16.125 9 16.125C12.3083 16.125 15 13.4333 15 10.125C15 7.07117 12.705 4.54807 9.75 4.17709ZM9 14.625C6.51855 14.625 4.5 12.6064 4.5 10.125C4.5 7.64355 6.51855 5.625 9 5.625C11.4814 5.625 13.5 7.64355 13.5 10.125C13.5 12.6064 11.4814 14.625 9 14.625Z" fill="#A5B4CB"/>
<path d="M9.96973 8.09473L8.46973 9.59473C8.17676 9.8877 8.17676 10.3623 8.46973 10.6553C8.61621 10.8018 8.80811 10.875 9 10.875C9.19189 10.875 9.38379 10.8018 9.53027 10.6553L11.0303 9.15527C11.3232 8.8623 11.3232 8.3877 11.0303 8.09473C10.7373 7.80176 10.2627 7.80176 9.96973 8.09473Z" fill="#A5B4CB"/>
</svg>
