<svg width="36" height="34" viewBox="0 0 36 34" fill="none" xmlns="http://www.w3.org/2000/svg">
<g filter="url(#filter0_d)">
<path d="M24.6667 21.6667C24.6667 22.0203 24.5262 22.3594 24.2762 22.6095C24.0261 22.8595 23.687 23 23.3333 23H12.6667C12.3131 23 11.9739 22.8595 11.7239 22.6095C11.4738 22.3594 11.3333 22.0203 11.3333 21.6667V12.3333C11.3333 11.9797 11.4738 11.6406 11.7239 11.3905C11.9739 11.1405 12.3131 11 12.6667 11H16L17.3333 13H23.3333C23.687 13 24.0261 13.1405 24.2762 13.3905C24.5262 13.6406 24.6667 13.9797 24.6667 14.3333V21.6667Z" stroke="#fff" stroke-width="1.8" stroke-linecap="round" stroke-linejoin="round"/>
<path d="M18 16.3334V20.3334" stroke="#fff" stroke-width="1.8" stroke-linecap="round" stroke-linejoin="round"/>
<path d="M16 18.3334H20" stroke="#fff" stroke-width="1.8" stroke-linecap="round" stroke-linejoin="round"/>
</g>
<defs>
<filter id="filter0_d" x="0" y="-1" width="36" height="36" filterUnits="userSpaceOnUse" color-interpolation-filters="sRGB">
<feFlood flood-opacity="0" result="BackgroundImageFix"/>
<feColorMatrix in="SourceAlpha" type="matrix" values="0 0 0 0 0 0 0 0 0 0 0 0 0 0 0 0 0 0 127 0"/>
<feOffset/>
<feGaussianBlur stdDeviation="5"/>
<feColorMatrix type="matrix" values="0 0 0 0 0 0 0 0 0 0 0 0 0 0 0 0 0 0 0.5 0"/>
<feBlend mode="normal" in2="BackgroundImageFix" result="effect1_dropShadow"/>
<feBlend mode="normal" in="SourceGraphic" in2="effect1_dropShadow" result="shape"/>
</filter>
</defs>
</svg>
