<svg width="34" height="34" viewBox="0 0 34 34" fill="none" xmlns="http://www.w3.org/2000/svg">
<rect x="1" y="1" width="32" height="32" rx="9" stroke="#E4EAF3" stroke-width="2" stroke-dasharray="16 10"/>
<path d="M21.0568 16.3237H17.6761V12.943C17.6761 12.5698 17.3732 12.2668 17 12.2668C16.6268 12.2668 16.3238 12.5698 16.3238 12.943V16.3237H12.9432C12.5699 16.3237 12.267 16.6266 12.267 16.9998C12.267 17.373 12.5699 17.6759 12.9432 17.6759H16.3238V21.0566C16.3238 21.4298 16.6268 21.7328 17 21.7328C17.3732 21.7328 17.6761 21.4298 17.6761 21.0566V17.6759H21.0568C21.43 17.6759 21.7329 17.373 21.7329 16.9998C21.7329 16.6266 21.43 16.3237 21.0568 16.3237Z" fill="#A5B4CB"/>
</svg>
