<svg width="22" height="22" viewBox="0 0 22 22" fill="none" xmlns="http://www.w3.org/2000/svg">
<path d="M7.79165 10.0833C7.79165 10.7543 7.94381 11.3887 8.20323 11.9634L4.58331 15.5833C4.58331 15.5833 4.58331 16.1993 4.58331 16.9583C4.58331 17.7173 5.40465 18.3333 6.41665 18.3333H8.24998V16.5H10.0833V14.6667C10.0833 14.6667 12.2182 14.6667 12.375 14.6667C14.9068 14.6667 16.9583 12.6152 16.9583 10.0833C16.9583 7.5515 14.9068 5.5 12.375 5.5C9.84315 5.5 7.79165 7.5515 7.79165 10.0833ZM12.375 11.9167C11.363 11.9167 10.5416 11.0953 10.5416 10.0833C10.5416 9.07042 11.363 8.24817 12.375 8.24817C13.3879 8.24817 14.2083 9.0695 14.2083 10.0833C14.2083 11.0953 13.3879 11.9167 12.375 11.9167Z" fill="white"/>
</svg>
