<svg width="20" height="20" viewBox="0 0 20 20" fill="none" xmlns="http://www.w3.org/2000/svg">
<path d="M7.5 17.9168C6.35302 17.9104 5.23339 17.566 4.2811 16.9267C3.32882 16.2874 2.58614 15.3815 2.14593 14.3223C1.70573 13.2632 1.58754 12.0977 1.80615 10.9718C2.02475 9.84581 2.57045 8.80928 3.375 7.99179L8.08333 3.33346C8.86435 2.55488 9.92218 2.11768 11.025 2.11768C12.1278 2.11768 13.1856 2.55488 13.9667 3.33346C14.7427 4.11414 15.1783 5.17019 15.1783 6.27096C15.1783 7.37173 14.7427 8.42778 13.9667 9.20846L9.25833 13.9001C8.78992 14.3658 8.15629 14.6271 7.49583 14.6271C6.83536 14.6271 6.20174 14.3658 5.73333 13.9001C5.49812 13.6652 5.31211 13.3858 5.1862 13.0782C5.06028 12.7705 4.99698 12.4409 5 12.1085C4.99837 11.4468 5.25908 10.8115 5.725 10.3418L10.4333 5.65013C10.5108 5.57202 10.603 5.51002 10.7045 5.46772C10.8061 5.42541 10.915 5.40363 11.025 5.40363C11.135 5.40363 11.2439 5.42541 11.3455 5.46772C11.447 5.51002 11.5392 5.57202 11.6167 5.65013C11.7719 5.80626 11.859 6.01747 11.859 6.23763C11.859 6.45778 11.7719 6.66899 11.6167 6.82513L6.90833 11.5168C6.75312 11.6729 6.666 11.8841 6.666 12.1043C6.666 12.3244 6.75312 12.5357 6.90833 12.6918C7.06446 12.847 7.27567 12.9341 7.49583 12.9341C7.71598 12.9341 7.92719 12.847 8.08333 12.6918L12.7917 7.99179C13.2522 7.5241 13.5104 6.89403 13.5104 6.23763C13.5104 5.58122 13.2522 4.95115 12.7917 4.48346C12.3229 4.01529 11.6875 3.75233 11.025 3.75233C10.3625 3.75233 9.72708 4.01529 9.25833 4.48346L4.55 9.16679C3.78655 9.94566 3.35892 10.9928 3.35892 12.0835C3.35892 13.1741 3.78655 14.2213 4.55 15.0001C5.33102 15.7787 6.38885 16.2159 7.49166 16.2159C8.59447 16.2159 9.65231 15.7787 10.4333 15.0001L16.9083 8.55013C16.9858 8.47202 17.078 8.41002 17.1795 8.36772C17.2811 8.32541 17.39 8.30363 17.5 8.30363C17.61 8.30363 17.7189 8.32541 17.8205 8.36772C17.922 8.41002 18.0142 8.47202 18.0917 8.55013C18.2469 8.70626 18.334 8.91747 18.334 9.13763C18.334 9.35778 18.2469 9.56899 18.0917 9.72513L11.6167 16.1835C11.078 16.7287 10.4372 17.1623 9.73081 17.4598C9.02445 17.7572 8.2664 17.9125 7.5 17.9168Z" fill="white"/>
</svg>
