<svg width="18" height="18" viewBox="0 0 18 18" fill="none" xmlns="http://www.w3.org/2000/svg">
<path fill-rule="evenodd" clip-rule="evenodd" d="M9.01862 6.52847C8.56722 6.52847 8.20085 6.89484 8.20085 7.34613C8.20085 7.7975 8.56722 8.16387 9.01862 8.16387H9.83622V8.98158C9.83622 9.43295 10.2026 9.79921 10.654 9.79921C11.1053 9.79921 11.4717 9.43291 11.4717 8.98158V8.16387H12.2893C12.7406 8.16387 13.1071 7.7975 13.1071 7.34613C13.1071 6.89484 12.7406 6.52847 12.2893 6.52847H11.4717V5.7108C11.4717 5.2595 11.1053 4.89309 10.654 4.89309C10.2026 4.89309 9.83622 5.2595 9.83622 5.7108V6.52847H9.01862ZM2.0388 14.1232C1.53156 14.6301 1.53156 15.4545 2.0388 15.9613C2.54568 16.4686 3.37012 16.4686 3.87354 15.9613L7.63165 12.2064C8.50814 12.7529 9.54188 13.0701 10.654 13.0701C13.8168 13.0701 16.3778 10.509 16.3778 7.34613C16.3778 4.18339 13.8168 1.62231 10.654 1.62231C7.49114 1.62231 4.93014 4.18339 4.93014 7.34613C4.93014 8.45501 5.24727 9.49195 5.79349 10.3684L2.0388 14.1232ZM6.56551 7.34613C6.56551 5.0894 8.39701 3.25769 10.654 3.25769C12.9109 3.25769 14.7424 5.0894 14.7424 7.34613C14.7424 9.60312 12.9109 11.4346 10.654 11.4346C8.39701 11.4346 6.56551 9.60312 6.56551 7.34613Z" fill="#1F3EFA"/>
</svg>
