<svg width="20" height="20" viewBox="0 0 20 20" fill="none" xmlns="http://www.w3.org/2000/svg">
<path d="M10 13.3334C8.16169 13.3334 6.66669 11.8376 6.66669 10.0001V5.00008C6.66669 3.16258 8.16169 1.66675 10 1.66675C11.8384 1.66675 13.3334 3.16258 13.3334 5.00008V10.0001C13.3334 11.8376 11.8384 13.3334 10 13.3334ZM10 3.33341C9.08085 3.33341 8.33335 4.08008 8.33335 5.00008V10.0001C8.33335 10.9201 9.08085 11.6667 10 11.6667C10.9192 11.6667 11.6667 10.9201 11.6667 10.0001V5.00008C11.6667 4.08008 10.9192 3.33341 10 3.33341Z" fill="#141736"/>
<path d="M15.8334 10V8.33333C15.8334 7.8725 15.4609 7.5 15 7.5C14.5392 7.5 14.1667 7.8725 14.1667 8.33333V10C14.1667 12.2975 12.2975 14.1667 10 14.1667C7.70252 14.1667 5.83335 12.2975 5.83335 10V8.33333C5.83335 7.8725 5.46085 7.5 5.00002 7.5C4.53919 7.5 4.16669 7.8725 4.16669 8.33333V10C4.16669 12.9333 6.34419 15.36 9.16669 15.7667V16.6667C9.16669 17.0833 9.16669 17.0392 9.16669 17.5C9.16669 17.9608 9.16669 17.9167 9.16669 18.3333H10.8334C10.8334 18.3333 10.8334 17.9608 10.8334 17.5C10.8334 17.0392 10.8334 17.0833 10.8334 16.6667V15.7667C13.6559 15.36 15.8334 12.9333 15.8334 10Z" fill="#141736"/>
</svg>
