<svg width="20" height="20" viewBox="0 0 20 20" fill="none" xmlns="http://www.w3.org/2000/svg">
<path d="M7.50004 11.6666C8.65087 11.6666 9.69254 11.1999 10.4467 10.4458C11.2 9.69242 11.6667 8.65075 11.6667 7.49992C11.6667 6.34908 11.2 5.30742 10.4467 4.55409C9.69254 3.79992 8.65087 3.33325 7.50004 3.33325C6.34921 3.33325 5.30754 3.79992 4.55337 4.55409C3.80004 5.30742 3.33337 6.34908 3.33337 7.49992C3.33337 8.65075 3.80004 9.69242 4.55337 10.4458C5.30754 11.1999 6.34921 11.6666 7.50004 11.6666Z" fill="white"/>
<path d="M7.5 17.5C10.4317 17.5 12.5 16.6667 12.5 15.8333C12.5 14.1667 10.5383 12.5 7.5 12.5C4.375 12.5 2.5 14.1667 2.5 15.8333C2.5 16.6667 4.375 17.5 7.5 17.5Z" fill="white"/>
<path d="M17.5 10H15.8333V8.33333C15.8333 7.8725 15.4608 7.5 15 7.5C14.5391 7.5 14.1666 7.8725 14.1666 8.33333V10H12.5C12.0391 10 11.6666 10.3725 11.6666 10.8333C11.6666 11.2942 12.0391 11.6667 12.5 11.6667H14.1666V13.3333C14.1666 13.7942 14.5391 14.1667 15 14.1667C15.4608 14.1667 15.8333 13.7942 15.8333 13.3333V11.6667H17.5C17.9608 11.6667 18.3333 11.2942 18.3333 10.8333C18.3333 10.3725 17.9608 10 17.5 10Z" fill="white"/>
</svg>
