<svg width="14" height="14" viewBox="0 0 14 14" fill="none" xmlns="http://www.w3.org/2000/svg">
<path d="M13.7375 12.5125L11.0206 9.79562C11.7889 8.771 12.25 7.504 12.25 6.125C12.25 2.74225 9.50775 0 6.125 0C2.74225 0 0 2.74225 0 6.125C0 9.50775 2.74225 12.25 6.125 12.25C7.504 12.25 8.771 11.7889 9.79475 11.0206L12.5125 13.7375C12.6735 13.8985 12.845 14 13.125 14C13.6089 14 14 13.6089 14 13.125C14 12.9334 13.9528 12.7277 13.7375 12.5125ZM1.75 6.125C1.75 3.70825 3.70825 1.75 6.125 1.75C8.54175 1.75 10.5 3.70825 10.5 6.125C10.5 8.54175 8.54175 10.5 6.125 10.5C3.70825 10.5 1.75 8.54175 1.75 6.125Z" fill="#141736"/>
</svg>
