<svg width="16" height="14" viewBox="0 0 16 14" fill="none" xmlns="http://www.w3.org/2000/svg">
<path d="M5.65556 12.8515L6.17069 12.3064L6.17055 12.3062L6.16999 12.3057L6.16772 12.3036L6.15871 12.295L6.12333 12.2616L5.98778 12.1333C5.87037 12.0222 5.70125 11.8619 5.49449 11.6658C5.08095 11.2734 4.51704 10.7375 3.9154 10.1628C2.71009 9.01164 1.36797 7.7192 0.771104 7.10818C0.768335 7.10391 0.75 7.07372 0.75 6.99981C0.75 6.92658 0.767982 6.89646 0.770791 6.89207C1.36742 6.28108 2.70983 4.98829 3.91541 3.83681C4.51705 3.26216 5.08096 2.72619 5.4945 2.33384C5.70125 2.13768 5.87037 1.97746 5.98778 1.86631L6.12333 1.73803L6.15871 1.70457L6.16772 1.69605L6.16998 1.69391L6.17055 1.69338L6.17068 1.69325L5.65556 1.14814L6.17073 1.69321L6.17206 1.69195C6.22261 1.64393 6.27873 1.625 6.32819 1.625C6.44991 1.625 6.57737 1.7319 6.57737 1.8958V4.28331V5.00779L7.30143 5.03286C11.061 5.163 14.1434 7.66013 14.9998 10.9368C14.5696 10.5981 14.0275 10.2993 13.4081 10.0444C11.9022 9.42459 9.80627 9.00975 7.33813 8.97436L6.57737 8.96345V9.72428V12.1038C6.57737 12.2677 6.4499 12.3746 6.32819 12.3746C6.27867 12.3746 6.2226 12.3557 6.17211 12.3077L6.17073 12.3064L5.65556 12.8515Z" stroke="#A5B4CB" stroke-width="1.5"/>
</svg>
