<svg width="17" height="17" viewBox="0 0 17 17" fill="none" xmlns="http://www.w3.org/2000/svg">
<g clip-path="url(#clip0)">
<path d="M11.4682 12.7546L10.4496 12.0414C10.4092 12.0131 10.3993 11.9572 10.4275 11.9169L12.4105 9.08476C12.4387 9.04448 12.4947 9.03468 12.5351 9.06299L13.5537 9.77624C13.7752 9.9313 14.0521 9.98833 14.3135 9.93258C14.5718 9.87742 14.7884 9.72248 14.9232 9.49601C15.1752 9.07334 15.0559 8.52038 14.6516 8.23725L13.6194 7.51448C13.5789 7.48617 13.569 7.43028 13.5973 7.38993L14.3087 6.37389C14.4635 6.1528 14.5202 5.87616 14.4636 5.61482C14.4081 5.35666 14.2527 5.13989 14.0258 5.00481C13.6021 4.75218 13.049 4.8704 12.7666 5.27373L12.0456 6.30342C12.0173 6.34377 11.9614 6.35357 11.921 6.32527L9.08339 4.33836C9.04296 4.31005 9.03305 4.25416 9.0613 4.21381L9.77274 3.19777C9.92755 2.97668 9.98419 2.70004 9.92787 2.43886C9.87212 2.18054 9.71696 1.96393 9.48981 1.82869C9.06636 1.57622 8.51325 1.69444 8.23084 2.09777L7.50984 3.12746C7.48159 3.16781 7.42567 3.17761 7.3851 3.1492L6.36797 2.437C6.14645 2.28189 5.86952 2.22478 5.60827 2.28058C5.34988 2.33582 5.13325 2.49071 4.9985 2.71723C4.74664 3.13993 4.8659 3.69297 5.27001 3.97593L6.30082 4.69771C6.34139 4.72612 6.35131 4.78202 6.32311 4.82229L4.34002 7.65443C4.31182 7.6947 4.25591 7.7045 4.21533 7.67609L3.19821 6.96389C2.97669 6.80878 2.6996 6.7519 2.43835 6.8077C2.18012 6.86271 1.96333 7.01782 1.82858 7.24434C1.57671 7.66705 1.69603 8.22001 2.10015 8.50298L3.13095 9.22475C3.17153 9.25316 3.18144 9.30906 3.15319 9.34941L2.44185 10.3653C2.28694 10.5865 2.23046 10.8629 2.28657 11.1244C2.34232 11.3827 2.49786 11.5993 2.72462 11.7346C3.14813 11.987 3.70124 11.8688 3.98381 11.4652L4.70465 10.4358C4.7329 10.3954 4.78881 10.3856 4.82924 10.4139L7.66684 12.4008C7.70727 12.4291 7.71718 12.485 7.68893 12.5254L6.97759 13.5413C6.82268 13.7625 6.76627 14.0393 6.82254 14.3005C6.87324 14.5352 7.00642 14.7359 7.20074 14.8719C7.22005 14.8855 7.24001 14.8982 7.26052 14.9107C7.6841 15.1631 8.23721 15.0449 8.51978 14.6413L9.24062 13.6119C9.26887 13.5715 9.32478 13.5617 9.36521 13.59L10.3974 14.3128C10.8018 14.5959 11.3622 14.5189 11.6731 14.1376C11.8398 13.9334 11.9115 13.6767 11.8749 13.4152C11.8379 13.1506 11.6897 12.9097 11.4682 12.7546ZM8.87577 10.8304C8.84757 10.8707 8.79165 10.8805 8.75123 10.8522L5.91363 8.86525C5.8732 8.83694 5.86329 8.78105 5.89149 8.74077L7.87457 5.90864C7.90277 5.86836 7.95868 5.85856 7.99911 5.88687L10.8367 7.87378C10.8771 7.90208 10.8871 7.95798 10.8589 7.99825L8.87577 10.8304Z" fill="#A5B4CB"/>
</g>
<defs>
<clipPath id="clip0">
<rect width="12" height="12" fill="white" transform="translate(6.88281) rotate(35)"/>
</clipPath>
</defs>
</svg>
