<svg width="20" height="20" viewBox="0 0 20 20" fill="none" xmlns="http://www.w3.org/2000/svg">
<path d="M10 4.16675C4.55001 4.16675 1.86668 9.40842 1.75835 9.62508L1.56668 10.0001L1.75001 10.3751C1.86668 10.5917 4.55001 15.8334 10 15.8334C15.45 15.8334 18.1333 10.5917 18.2417 10.3751L18.425 10.0001L18.2417 9.62508C18.1333 9.40842 15.45 4.16675 10 4.16675ZM10 14.1667C6.35001 14.1667 4.16668 11.0834 3.45835 10.0001C4.16668 8.91675 6.35001 5.83341 10 5.83341C13.65 5.83341 15.8333 8.91675 16.5417 10.0001C15.8333 11.0834 13.65 14.1667 10 14.1667Z" fill="#A5B4CB"/>
<path d="M9.99999 6.66675C9.34072 6.66675 8.69625 6.86224 8.14809 7.22852C7.59993 7.59479 7.17268 8.11538 6.92039 8.72447C6.6681 9.33356 6.60209 10.0038 6.73071 10.6504C6.85932 11.297 7.17679 11.8909 7.64297 12.3571C8.10914 12.8233 8.70309 13.1407 9.34969 13.2694C9.99629 13.398 10.6665 13.332 11.2756 13.0797C11.8847 12.8274 12.4053 12.4001 12.7716 11.852C13.1378 11.3038 13.3333 10.6594 13.3333 10.0001C13.3333 9.11603 12.9821 8.26818 12.357 7.64306C11.7319 7.01794 10.884 6.66675 9.99999 6.66675ZM9.99999 11.6667C9.67036 11.6667 9.34812 11.569 9.07404 11.3859C8.79996 11.2027 8.58634 10.9424 8.46019 10.6379C8.33405 10.3333 8.30104 9.99823 8.36535 9.67493C8.42966 9.35163 8.58839 9.05466 8.82148 8.82157C9.05457 8.58848 9.35154 8.42975 9.67484 8.36544C9.99814 8.30113 10.3333 8.33414 10.6378 8.46028C10.9423 8.58643 11.2026 8.80005 11.3858 9.07413C11.5689 9.34821 11.6667 9.67045 11.6667 10.0001C11.6667 10.4421 11.4911 10.866 11.1785 11.1786C10.8659 11.4912 10.442 11.6667 9.99999 11.6667Z" fill="#A5B4CB"/>
</svg>
